/* XPM */
static char *wall_east[] = {
"64 64 66 1",
"  c #143C50",
". c #164054",
", c #184559",
": c #1A495E",
"; c #1C4E63",
"- c #1E5268",
"= c #20576C",
"+ c #225B71",
"* c #246076",
"o c #56D0EE",
"O c #ACE4F4",
"0 c #2A6D84",
"x c #79C2E3",
"X c #C7F6FD",
"# c #307B93",
"@ c #327F98",
"% c #34849C",
"& c #3688A1",
"$ c #388DA6",
"a c #3A91AB",
"b c #3C96B0",
"c c #3E9AB4",
"d c #409FB9",
"e c #42A3BE",
"f c #44A8C3",
"g c #46ACC8",
"h c #48B1CC",
"i c #4AB5D1",
"j c #4CBAD6",
"k c #4EBEDB",
"l c #50C3E0",
"m c #52C7E4",
"n c #54CCE9",
"p c #58D5F3",
"q c #64B4DC",
"r c #67B6DD",
"s c #6AB8DE",
"t c #6DBADF",
"u c #70BCE0",
"v c #73BEE1",
"w c #76C0E2",
"y c #7CC4E4",
"z c #7FC6E5",
"A c #82C8E6",
"B c #85CAE7",
"C c #88CCE8",
"D c #8BCEE9",
"E c #8ED0EA",
"F c #91D2EB",
"G c #94D4EC",
"H c #97D6ED",
"I c #9AD8EE",
"J c #9DDAEF",
"K c #A0DCF0",
"L c #A3DEF1",
"M c #A6E0F2",
"N c #A9E2F3",
"P c #AFE6F5",
"Q c #B2E8F6",
"R c #B5EAF7",
"S c #B8ECF8",
"T c #BBEEF9",
"U c #BEF0FA",
"V c #C1F2FB",
"W c #C4F4FC",
"Y c #CAF8FE",
"OOOOOOOOOOOOOOOOOOOOOOOOOOOOOOOORTWRVTPSWYSUUYROOOOOOOOOOOOOOOOO",
"OOOOOOOOOOOOOOOOOOOOOOOOOOOOOOOOSTRQOQSUWRRVWUXOOOOOOOOOOOOOOOOO",
"OOOOOOOOOOOOOOOOOOOOOOOOOOOOOOOOTSVTSOLPUPTTPWYOOOOOOOOOOOOOOOOO",
"OOOOOOOOOOOOOOOOOOOOOOOOOOOOOOOOUPTRLOMNPNQROOPYOOOOOOOOOOOOOOOO",
"OOOOOOOOOOOOOOOOOOOOOOOOOOOOOOOOOSTOMNJIPOPMRXXWOOOOOOOOOOOOOOOO",
"OOOOOOOOOOOOOOOOOOOOOOOOOOOOOOOOOTPLMNGFEINJVXUXOOOOOOOOOOOOOOOO",
"OOOOOOOOOOOOOOOOOOOOOOOOOOOOOOOOOTPNLLEDEHMSUVSYOOOOOOOOOOOOOOOO",
"OOOOOOOOOOOOOOOOOOOOQOOOOOOOOOOOOORICHGGFHJMOVSYSOOOOOOOOOOOOOOO",
"OOOOOOOOOOOOOOOOUYVTUOOOOOOOOOOOOOUEFEDwuTNRSTSXQOOOOOOOOOOOOOOO",
"OOOOOOOOOOOORYXQPTVUWOOOOOOOOOOOOOPEFBzyuuOSSUSVPOOOOOOOOOOOOOOO",
"OOOOOOOOQQSSILQLNTPYVOOOOOOOOOOOOOORFCECtsRUVWYYYVOOOOOOPOOOOOOO",
"OOOOORRWGFFCCNOKOPUWSWOOOOOOOOOOOOOQHGGzytWYUYYYYSOOOOOWVVOOOOOO",
"ORVTVDDADABEBFIJLRNPXUOOOOOOOOOOOOOSJJBxxyxXWYYYYYOOOOUYYYUYOOOO",
"VLJGGGAxxFzAIIIMIKNSSSOOOOOOOOOOOOOSSCCCBzBYYYYYYTXOOYXYYYXRSOOO",
"TYFEFzCwyuyWVWPTXVPUWVTYXPOOOOOOOOOOSCBzBzEYYYYYYYUOOUYYYYYPPXOO",
"SULGBWRQXSQYPSWWSUVXXVXYVYVOOOOOOOOOQJDBCGGEYYYYYYPORYYYYXYYWYVR",
"YQIIGWXPRPQYYUUYYVYWXSYYYUSYOOOOOOOOQKHIDDFEYYYYYYXQWYYYVYYYYYXX",
"VSKGDWSRWQRVXXYXVXVYYYYYYTWTYOOOOOOOOUGHLLLIYYYSXRPUWXYUXTYYYYYP",
"OTPIYYWYUTXSSSVYYYYYYYYYYYQOTYOOOOOOOUNLMLKWTWUWWQQRRXTWRXYXXWYY",
"OVQYYYYWVXXYYYYYXYYYYYYYYYXPSNXOOOOOOULNXVXWVTYOOURQTPVPRRQTYYYY",
"ORYYYYYXYYYYYYYXWYYYYYYYYYRMOPSTOOOOOOVTWQTOOOOOYTKQTSTPPUQRXYYY",
"OSPWYYYYYYYXYYYVWUYYYYYYYYYRIQRSQOOOOOYUOOOOOOOOYOLNLMQRLSQVVXYY",
"OOUWYYYYYYYYWYYXWYWWYYUUYYYVJPSOQSOOOOOOOOOOOOOPLMGJNOKPMPLTXYYY",
"OOSVYYYSXYWYYYSUWSVWSTSWXXYXELPNYXTOOOOOOOOOOOSTMIJJJHIIJLTUXYXY",
"OOSPRXSGDYYTYQQTUSOSVVQSWUYPVRSSYXYPOOOOOOOOOOROKEGECLJLIMQOQWYW",
"OOXOOWDFXWYXWRRVRWPQRSXUVUYYPuSXYWYYSOOOOOOOOYPKGHHDzHFHHPRNSTWY",
"OOOOOTGUYXUVYUSSWTINNOPPTWYYQwvTXYYYUROOOOOOTQMJEDBDxzCFJPPSRVYY",
"OOOOOXHQQYYUWUYTUSLPKMQSYYYYYxvxYXYVUVOOOOOSYQLIICGAzyFGLINNRVTU",
"OOOOOTPVVTXQWTXYYYKIKKYVVWYYYTACAYSPUOOOOOOUILEEEyAwvuFGKLQOPRSX",
"OOOOOYVYVWUUXVWYYVPYGQSSUWYVYVPABSWXOOOOOOWJMFJBAxyywvSOPPVXYWYY",
"OOOOOQQOTUTQYYYYYVWTVWPNVSXYYVTPQWUOOOOOOSXJLFGCAByztQRMRPTVWYYY",
"OOOOXTUTMKMXYYYYYQTUYWXNPVYYYWSQRROOOOOOOXOMKFJIBBAvYYYXORXVXWYT",
"OOOOWQTSRKNVYYYYYYPUYYYWUSYYXYXYVPPOOOOOWOMPOKKHGzCBWUUYUVVUXYSO",
"OOOXYTUTOMJTYYYYYRTWWYYYYWYYYYXYWXYPOOOWTSPOONGKGGzYYYYWXXWWYQWO",
"OOOUTWSOOLMXTRWWTYTYYYYYYYYYYYWYUYYTSWVSVSPQOIXVTQYYYYYYYYYYYROO",
"OOOOSXTUPTWRYVYUTYVYYYYYYYYYYYYYYXYQQOYPXSWXPQYURUYYYYYYYYYYROOO",
"OOOOOWYYWQWWTYUXRPDYXYYYYYYYYYYWYYWTOOPRYTUYWYWVWYYYYYYYYYYQROOO",
"OOOOOOOOTVORSWWWXFBCYYYYYYYYYYYXQRYUOOOOSVWYXVUXYYYYYYYYYYYYOOOO",
"OOOOOVRVRTPOQXWWTIEGHHYYYYYYYYYWUUXOOOOOOXUYYUVYYYYYYYYYYYSOOOOO",
"OOOUYTGHPMLSVVYVUSDEJWYYYYYYYYYYWWVPOOOOOOXWTUTYYYYYYYYYYYYPOOOO",
"OPVRICCCNIKLMWWSXWHYVTWYYYYYYYYYXQRPWPOOOOOVWSWYYYYYYYYYYYYPOOOO",
"QRHJCABGKLNILUSXYYYYYVUYYYYYYYYYYYYYXUOOOOOTVTVVXYYYYYYYXUUTOOOO",
"CGCGFEByFJHNJLVVYXYYWWYVYYYYYYYYYYYYYUOOOOOWRSRUVVYYYYYUQQYQOOOO",
"BAAvwxwCDDGKSRWXXYYYYYYXYYYYYYYWYYYYYROOOOOYPNOLUSPYYYPVPTYPOOOO",
"FCywzxwuzDJPSSRSYYXYYXVTYYQPTRWXVYWXSOOOOOOSTNNIMXTWRYYLXXXQOOOO",
"FAAxyvqIJMLQMTWVWYYUWWXURTPUVVRTTVTXXOOOOOOOWGGNFJDYXRHORRXYWOOO",
"FBCwuRSNOKKMPTQTYYYWWYYWVSNMLQPTSSRVVOOOOOOORKIGBzECYFPOQRUWWOOO",
"GzxUVVVQMSOPNPUYYYVYQSUGMNJIJOOPTOUTWOOOOOOOPHGEFBBATJNTQXVYXOOO",
"IYYYWVTQOOUXRRXXXUROOXHFILKDGNMMNPUTSOOOOOOOYMHEDDBvqURPVUTYYOOO",
"YYYYYUYUTTTVTUYQOOOOOQJGEEGCFJJNQMYXWOOOOOOOWMJGBEsrxURYVYWWWOOO",
"YYYYYYYVUTTSPQOOOOOOOWJGACBCDKMTVTXYTOOOOOOOOYGHIwvytSYVXXYYYQOO",
"YYYYYYYWYQRUOOOOOOOOOQHFDzwwGNLSQRUSOOOOOOOOOSHJBDxxzXXWYYYYYSOO",
"YYYYYYYUWQOOOOOOOOOOTKFCGCsrORNNUXXROOOOOOOOORKHCCyxxWYYYYYYYVOO",
"YYYYYSXOOOOOOOOOOOOOTHJBxvsrQTWQPWYTOOOOOOOOOPIGHCBBDDYYYYYYYTOO",
"RYYPROOOOOOOOOOOOOOOQGDDzvvxSSWYWWYUOOOOOOOOOVKJJDEFBHYYYYYYYTOO",
"VWPOOOOOOOOOOOOOOOOOPGGAADByYVYYYYYTOOOOOOOOOSJLKJHDFHYYYYYYYYUO",
"UOOOOOOOOOOOOOOOOOOOTJIDCEDyYYYYYYYTOOOOOOOOOOWNLIHFILYYYYYYYYPO",
"OOOOOOOOOOOOOOOOOOOOPIHEHGCEYYYYYYUOOOOOOOOOOOUKKNMLLLYYYYYYYYUO",
"OOOOOOOOOOOOOOOOOOOOPMJFIDEYYYYYYYYOOOOOOOOOOOPOMKOKKOOYYYYYTVTO",
"OOOOOOOOOOOOOOOOOOOTPOILKEFYYYYYYYWOOOOOOOOOOOVOQQOPMOSTQPSRSXTO",
"OOOOOOOOOOOOOOOOOOOQNKLMLLKYYYYYYYSOOOOOOOOOOOYTUYRXRWPSUTXOOOOO",
"OOOOOOOOOOOOOOOOOOOQXQLNLKHYYYYYYYVOOOOOOOOOOOOYWWRUSQOOOOOOOOOO",
"OOOOOOOOOOOOOOOOOOOYWQVPTVRXYYYYYYTOOOOOOOOOOOOVOOOOOOOOOOOOOOOO",
"OOOOOOOOOOOOOOOOOOOOOTTSTXUTUYTQYPROOOOOOOOOOOOOOOOOOOOOOOOOOOOO"
};