/* XPM */
static char *wall_north[] = {
"64 64 61 1",
"  c #28242F",
". c #2D2B2D",
", c #2F2F37",
": c #2D3330",
"; c #383133",
"- c #363741",
"= c #413740",
"+ c #3F4247",
"* c #423F47",
"o c #988E95",
"O c #E5E5EA",
"0 c #4F4853",
"x c #AAABB3",
"X c #564F57",
"# c #5C575E",
"@ c #575656",
"% c #5E5B58",
"& c #615D5C",
"$ c #5B5F6B",
"a c #616461",
"b c #60656B",
"c c #726775",
"d c #707278",
"e c #747476",
"f c #717374",
"g c #70757E",
"h c #747983",
"i c #767988",
"j c #898482",
"k c #8C8083",
"l c #82898B",
"m c #8E8F8D",
"n c #968A92",
"p c #949393",
"q c #9C95A1",
"r c #A09FA1",
"s c #969FA7",
"t c #A6A2AB",
"u c #AAA1A2",
"v c #A5ABA5",
"w c #B0AFAC",
"y c #B2B1B8",
"z c #ADB7BD",
"A c #BAB3BF",
"B c #B4B7BD",
"C c #BAC1C1",
"D c #C3BEC1",
"E c #C5C0C7",
"F c #C0C3CF",
"G c #CFCECF",
"H c #D2CCD7",
"I c #D4D3D3",
"J c #D6D0DA",
"K c #DBD8D9",
"L c #DAE0D9",
"M c #E4E0DD",
"N c #DFE2E0",
"P c #E5E7ED",
"Q c #EEEBF4",
"R c #E7EDEE",
"S c #F9F2EE",
":+. :,, . +=:--+*=*  ; ..,.++.;=;:=:..::=*+-+, = .;.**-:  =-,;,,",
":FLHxJxGKEIDHHyI *NQGxEyxF;,KOIJGxGEBzyKIzzJA**QSRAICFKzJyCyEJC=",
";OLHwzADKGKvIAIy,*PMNAwFIy =QSNIBBvIAxKECJKEF  PGQFKyvxxBCwzDyx ",
".IsEDEpvAmwytxml*.CuDspqqr**CDGttsADCABzykvrv**BvswwqAvBoosqojr*",
"-AIHtEqnxymojmjh.+uxBAAAww=,xxsFCFtAspyuqyltg,*GFvvDprtnAykqjov ",
":wzvDBrpwmAqiwvo,,wxuottuk::tuGpFBvBBztxysmui-;twqtAqxrovzmnsro.",
"+zqrEAvtlqouhvgm=-qvrunxtk;-rxAuuAnqrssumrluu.+HEworqouowqmjnft ",
" DCrswAxyyqxjnoq; zxvymrtv :vCxAoqsuwzjkxttrr;.ryAyzwuzwoollmle;",
"+wAwtpwzlxtnpjhi;=rpqomrjv+,twCrrzmqjzjhuoprh*=qxqwuxxqsmvprprg.",
"+EArvlrsjyrpousr,+yyBvyliq=*BoyBswsyoihgjqjmh-:tEDsplmkismrhmti=",
";orrzkrulkvfuqqk-*ynnmxvog,;oCtBlrkikhtjfsrnf,-Doonptntwnngskqe:",
".*X*0Oo=#-XXo0+-:-xX0-ox0O;;@-o-oXx0*xXx+#0#o; +Xxo0=0=OOO=0@o++",
":o-0O+*X-+=ox0XO-=*-O*o*+=,+#o@-#Xo#+x-o@-#*O,=-*@+*O*=0=o#*X=O=",
"-*: ;: ,,:-=*:.:-* *.-:;*:*+**.:;,+.;; *=  .,*-.+;- .=::===-*,*+",
",.:;;.-,+-*: *  :=: -:;:,;.+,; .; ,,;: ;-;..; . ==*=+.:***:=- .=",
",NRSHxEzywzJKI:-KNFwxGCD*:RHHIAxGD;=JGGwFEAvIDzJHJJzFw. HSPzxII;",
";FKQFEwAFKKDJK+:OFJwJzFJ-,PJGwAvFC;.KQQKEDBJKzKDHCyDIE* OLLCwvz+",
"=AtvDvtvpujjkv =GvDurqnt*;ArByrkpo;-xDwGqoBwxlyAtvipio=*zsopyvw=",
"=yxtBqznslolsl-:sCsoowjj:;CtvuAkuq= uDuFConolnwunklsmh.;qtomxij-",
":#x=++OoX@-oxx.:-XxO++@= **-@x*0@-..@o+XoXo00--X#o#-oO.=-o#-*o0+",
"+-0-+0oXO@-x#* ==o+x###x-+@@xO@#x@,*-X+O*-*0-@#++-=+0x--0=0=#*x-",
".::*; = :;+..,* ,,- =,+- ::- -,=.. ;==,*.. +.;*,=; * ..+* ;.;:-;",
"=;.,*::;,-  =:-;-; ,*-,*++*=+.,,=;=;;:*;=- ,,-;. ,,,=+--=.=.;:,;",
"=IQNIyIxDxB,+MGOFAzEyCx= RNLIKwIH+.NPJJvKxKKAwwDxA;*FGGKGwEyD:,,",
":OMGAzGDDIv; IROGxDEyyD:+SSPGHCwJ+,FSOAxJvBFCKGJzK=*PGNyKIHAv,++",
"+tDruAuBvmh+.wHBsznpvlq:=HxDzAmus: JBrtwEwAzlxxlxs::BEruqlrmm+- ",
".yxFwnxlpqu.,DtzCnwkylu:-tvAnxzti ;xzwqwyuooskkhss**BEosssnog=:-",
"*GFDqpltomo+*Byporzqrnk;=qvtnAvnp.;Dyrqowupkwylurs+;Bvnqtrmtg.*.",
"*Ftpuuxrkvf*=FEonzzxmre;+Bowzjvvk- sACDBuspzylvvqk.-Fwywlonos*; ",
" ynwunrjlre ,pCrrqxrhse,+CtAqrpms**ztzsBljwrsgtunp ,Dsqzvnnko-= ",
".0o*#*O@@X0*-x=#X+#O0-X -O-+OO-=#-+@@0+X#--=#=0O+=,*Ox*X@O0+0-.:",
",x@X*0-0#X@=+@-O==0o=x@-=OO*-*O#=;,@@o+XoXo00--X#o.,ox*x*OO#o-.=",
"*+-:-=,-;+  =*;;.=.,; ;-+;-;*;,:=:;* *,-: := +;,, .+*==*,=;+,+=;",
"*--,:,-=:++*=*;;.=.,:; +:,+.-:* =+ ;,*.;*,,++;  =:.;=;* *==:  ,+",
"-OPFHBBDIzIwKyFyzvB--MHLBwxywyxACCJJJ=,QOGIAvEw -LPJxEIxDyvyJHK=",
".GOIEJKvDzxHzGBGFAv,;GMOKzvBAHJwzzBDw==QLNJDwCA=,GQRCyxEvAwwJvy-",
"=zDuxywtEBpulvxqwxl*:HxDwzCypooqwmkrq++tFFvwBrq,+CvryzqAmuukppt+",
":suuCyAtqpqnmpyhjng:,srzExsBCmpjnyhnv=*trpztmik=,tuuBDyxxmvlpmt-",
"+urBsznnswtuxtohwms;*EtBpqrBnltnwvssf ;suyxlsqr*=zqFppoAAkrkolp;",
"=Htyuzztywyvywpqrkj++Crzpnoxokxqoupmu==BDqxtyji,.uyFEpCozwumgjg ",
".FzrzCuynwqkkjgqrfi;,ErCsCnuruvwmsrqg*,wDsxxlvq: qvuwznqmiojksd+",
" uEtrqxtAqtnxqmhoio =zrpxuBqysiwtpjjs:.uBtpymfl+ vzDwzkoopklepd+",
"=x@0o@xo@-*Xo0@*xoX ;oox=x=@@=**x#-x#.,ox-@##=O,:x*oO*#+oo+0@=x:",
";0+oX***-0@*X=**oo==-Xoo-+O+OO*@xo++X=-XXO#OO**+-x*#Xo0O-**oxXo+",
"., *+ -=. ++,;-,=:+:-*:*,;.,:,=:=,:.=:=::*:=..:-+; ,+*,+=::,*-,:",
";.::;  ,,=:+.:;;  :;;.+:+, :,:.++-:+;- ,*-==*-,. -;,;;,- ::;+*;+",
"+NLOFBACJwFGx.;LIIFJBJAHBFIF.+IPLwHzGCBwy;*FKGCvIHBKyv*+OIIAGFA:",
",FKRxGyGBDyKB *KNREAAvvEKEzJ*.HGQDDABGIGy-:KFPEBKIHDxC.*SKQzHFJ ",
"+GEvvEqmttpjm:+EHAFAEApxlmmw* DEyFtptlnun..uxzrDoyyuki +yAAwuvt.",
"+uzpwwCqtzpmj,-uFGvDBxmukiir.*wDxrtzqruui- tDwuqBrmumo.*vCxBpyq:",
"=rCyuCCmwqllg+,wFuDvrAnyoyip:=BDzywmvpmkj-;wuEDomnwswh::tpoBAlu=",
".vrqoBzsmjvhl*=FEDznzvnltqwl+ qCDCwrqqhqh,*yDtvAmuqsqn.;BBDrnkw ",
".wuoupnmmxgmg==EsEyuutrwjuil..twzmrzmpunq-+yCznprwhvuq*-zBrsyss+",
"+rxBrnxktjshf: wDpBmvzrphjoi-=tsBtvxsrsor=-vyzmpupmvhs,*uAxznhq+",
" woxtlsiusqeo;;Axvuquwotkohi: xousuzxssrf;*wpnosoutmue;,xrttpgr:",
".O+=-=#0*oO-#;-#@X0X+X-X=X#O*=#--o*Ox-*--.;x@--==##OXO==x#o##0=-",
"-Xxo@+#0Oo=0O=-=0*=@oo#o#=#x*;#=x@x-*#-O+++XoO0+oOOX*# ,O=oO0#*=",
".-+.,: .*.+*:.:;*:,-;+ .*.=.,+-.,;;,+:::--,==-.;=+;;.=:+.=,,,=:.",
"::.:.=,-*-;+: ;-;;;,-*:*,;-.==-=--; -:,..-+=*-,. -;,;;,:=;,-++*-",
":LFGzvEwCK  RIPFyFHAzJwAy*.IPOvIKKFBCDvFxz, KGIvIHBKyv*+PLHIIFx=",
";GIIEwvzzH:,GRKyHBxBEEwEK.-MRSzDHvBKzDJDHG -FPJBKIHDxC. PQOGFwE=",
"+X0#O#+*x@*,-x*#X*+@@x-#X.:+@0++x##xO#0Ox0+.*@Xx-0xO=- *o#oO0#0 ",
",-OX#O@@#o. *X#=X*#-=+-OO. #+-o-o*#XX000=@,.0**=X*@0+#.-=x=Xooo,",
"+*=,:*. ;*::.=-.+*:-..*=:- +,=-  ;:-+ :  .:,,*+* .=-+ :;- :**- ,"
};