/* XPM */
static char *wall_south[] = {
"64 64 65 1",
"  c #3C230F",
". c #3F2510",
", c #432711",
": c #462912",
"; c #4A2B13",
"- c #4D2E14",
"= c #513015",
"+ c #543216",
"* c #583417",
"o c #AF6B30",
"O c #D8C344",
"0 c #623B1A",
"x c #CF7F39",
"X c #693F1C",
"# c #6D411D",
"@ c #70441E",
"% c #74461F",
"& c #774820",
"$ c #7B4A21",
"a c #7E4C22",
"b c #824F23",
"c c #855124",
"d c #895325",
"e c #8C5526",
"f c #905727",
"g c #935A28",
"h c #975C29",
"i c #9A5E2A",
"j c #9E602B",
"k c #A1622C",
"l c #A5652D",
"m c #A8672E",
"n c #AC692F",
"p c #B36D31",
"q c #B67032",
"r c #BA7233",
"s c #BD7434",
"t c #C17635",
"u c #C47836",
"v c #C87B37",
"w c #CB7D38",
"y c #D2813A",
"z c #D6833B",
"A c #D9863C",
"B c #DD883D",
"C c #E08A3E",
"D c #E48C3F",
"E c #E78E40",
"F c #B49632",
"G c #B89B34",
"H c #BCA036",
"I c #C0A538",
"J c #C4AA3A",
"K c #C8AF3C",
"L c #CCB43E",
"M c #D0B940",
"N c #D4BE42",
"P c #DCC846",
"Q c #E0CD48",
"R c #E4D24A",
"S c #E8D74C",
"T c #ECDC4E",
"U c #F0E150",
"V c #F4E652",
"W c #F8EB54",
"FGHIKKKKNOPQKKKKVWFGKKKKLMNOKKKKTUVWKKKKJKLMKKKKRSTUKKKKHIJKKKKK",
"GHINOPQNOPQVWKLVWFGQRSTLMNOLMNOTUVWTUVWJKLMOPQRRSTUWKLMHIJKRSTUP",
"HIOQSUNOPQRTVKVWFGUWLNLMNOKMOQTUVWNPRTJKLMQSUWRSTUTVKMHIJKWLNPPQ",
"INQTWNOPQLORUVWFGWMPSLMNOUKNQTUVWSVLOJKLMQTWMRSTUORUKHIJKMPSVPQR",
"KOSWyvDCCExCDyCDyBDAAzxwzzCzzCACwDzEvACBAACzADDDxyzwADDvCExBPQRS",
"KPUNBxxEzAyCvyCBzAvzCCBzBDCEwEvBECzzxAxAACCwyDzyAByCDxDxzwxyQRSN",
"KQNOAybf0@%aeO@$cfOX$adx#&bex#DxECX$adO#&cf0X&cex@&be0#&bdBARSSL",
"KNOPwwcOx%adOx@acO0@ade0@abOx#xyww#&cO0#abeX@acex#&ceX@$bOvASVPW",
"NOPQvDefX@$cfx&aeO#&$ef#&bd0X@zECC@adf#%$eO#@$eO#@aef#@ae0wvWRMU",
"OPQLywdOX$be0@oonmrrsuw#&ce0#&yvzB$be0#&afnnnnpruswdOX$bf0yBRNWF",
"PQROvwOx@$cOXlkkljknrruv&de0@$CwxB$dfX%abkkklkjoqrswX@adeXBzMWFG",
"QVTRAxO#&bdgigighillmpuuxifX@bCEAAadfX%hgiiigglknrsuwibdfxxyUFGH",
"KWVUzCO@$cfgggxvgihiknquwg0#$cEvvvbfx@%ihhvxighiknqswgcfOXxzFGHI",
"KKKVvBX#acivxxttsxhhikntvhj%&dBvABdex@gwxxtutvggilntwgjeX%DwGHIK",
"KLVWDz#%bivwspqqqtsiiknpuhkmbeDzzzcO#gwwtrqqqssiijmquilmx&zEHIUV",
"KVWFxx#$cwsspmnoCBECDlorshlnadvxDCdxXwutpmmmEBDCElnqthjo#%wxIPRT",
"VWFGxB@adxupokkCCAAADDmrxhjmbexDywfx#vtqmjkBAAECBDmqxhko#aCDVLOR",
"WFGWwC@bdsrmjggDDCEBDEqsvhlodfxyCEfX@tpnkghDBEEACEpsvilm%bEvQULN",
"FGUMBz%bdpmjhwtAAABCEEtwhlmqfOzBzzx#$rmlgvsEBBDCAEuvhlmq$cxCLQNO",
"GQWPED$dOojhvspECBBACAwwhlnrfxCzwz0@&njhvupAACEADBxwgknr&bzyTNOP",
"KRLSxv$dfnkgxrnDCACCEBggjopu0xBxzvx@bmkgvqnBEEDEBChilnqtbcDvNOPQ",
"KSNLxAafOnlguqmlDEDDDljlorpsO#DECA#%cnkitrmjBACCEkkkoppuadBBOPQU",
"KTLMEzcOxojgsqmkhvupnmnopsuvx%zCCy%$bmjgtpmjixtqnnomqutvcOCAPQWS",
"KLMNEzcfx%jhwsmlgvxtrpqsuuwf#&xEzB&adfkhxsnjixvtrrruttvbdfBAQWTQ",
"LMNOBBeO#$bgxurojgiwxusxxwex#$zEyz%cex#ivsqmlhgxvstvvv%ce0wyUSQO",
"MNOUyDf0#aciwturmklhgihggifx%azwxv$ceX@hwsurnkkihghhgg$cO0vxPONV",
"NOKKCzfX%be0xvsrrmlkljlj$cfx%byyCBadfX@bewsprmkjlljkx%beOXAwKKVW",
"OLMNwvx#&ceOX&wttrqmoom$bex#%avEDCce0X$ceOvutpqnonm0#&cf0@zCSVWF",
"KMOQEEx@&dfx@$deX%&bex%adf0#&bxvvBbfx#adex#$bOX%acfx%$dex%CwVWFG",
"KNQTEz#%ac0#@ad0#&bc0#&$c0X&$cDwvweO#@bcOx@bdO#%$cfX@aef#%vAWFGR",
"KOTUCwyDEyAxECBDvEBvwwEwzyxDvDDwBCDvwCzwAxAzAExCywxBxxxCAvBvFGLP",
"KTUVwAxzEvBvyxvwEyADAwzyzEzvExwDvzAwEDyAEExAwByzzyBCAvBAwywEGQVN",
"TUVWwEAzDzACBzzzwCBvEzyCzwCxxxBCxEyABBvDAABEwyBBzvwEEvAzBxAATMSL",
"UVWSvBvByBwEvwvyzxwxECDEyBywBBvDyEACyABEzCExCADzyvDvDyCCvCExOVPL",
"VWNVDw$cfx%$beX%&cf0%$beX#adexCvAz0@&ce0#$dfx%$cfx#&bO0#$bBDWRLM",
"WTPLwCbcOX&acfx%beOX%ac0x@bc0xBxAzx%beOx&ae0x%$ef#&$df#&bdyERLMN",
"KUROxEaex@%adOX%bdx#$bfOX&ce0XyCEC@$cdx#&cdxX%be0@$af0#&afDwLMNO",
"KVTJBCbOx@&dO0momopquuwx@&bf0#vBvv#$cO0@&dnmonpqsuxbfx@$bOvvMNOO",
"KWJKxCef#&$cOllkjjjmqptw@$efx%wxDE%ad0x&$lkklkjoqqsvOX%acfwvNONM",
"KJKLxvd0#&biigggihlknqsswifx#&EywE$afO#highgigkjmruuvi$cf0wDOKKK",
"JKLMEweX%&biiiwxigghjnqswhex#avzAA&cfx#hgiwwhiggknqtwi$cOXxvSTUV",
"KLMQBzO#%bivvvsuuvhghkmuxijx&avzDyacfxhvxwsutwigijotvhjdOxyCNPRT",
"LMQTDD0X$hwxtqprptsihlorugkm&czwxEafxhxxtqrppuuhhkopuijoxXywVLTU",
"MOSWACX#$xsuqmnnACDEDjnquhkn$dByCxcf0wstpnomCDABAjnrtilox%zxQTUV",
"KPUMDBx@$wtrnkjCBADBACnpvgjmacvCEDc0xxupmkkEDDDCEDopvgkox&DBTUVW",
"KQWRAA#$btqnliiBCEBEADruvhkocdzExDdx#spmjihCAEADEEqsxgloX&AEUVWL",
"KRRSAB#&dpmkixuCBDBBEAtvhjnrdeEBBDfx#qnjgvsBDDEACAtwijmp@$wBVWPW",
"KRSTyB@adokivurBAACBCDvxijnpd0CzAxfx&mlhxsqEEECDEDvwhlop&axvWRMU",
"RSTUxE%benkhwqoCBABCCBhiknqte0xDwD0@$njgxpmAEDEDBAghlops&cCvRNWS",
"STUOEA$cfojhupmjADEEClljnqptO0yCDE0#ankiuqmjBCAEAlklnpqt&dwvMWTJ",
"TUTRCz$dfnkhurnkgwupmnonrstwO#BvyD#&amlhtrmkhvtronoopusxbdvAUSJK",
"UWVUywaexXkivtnkhwwsrprtssxeO#DCxC#$aekgxtokgwvtrrpssuv&afCAPJKL",
"KKKKBAbex%$gwtpokggwxutvxvcex#CyDz%aceXhvsqokiivxstxwx#&devDJKLM",
"KLMHBxdOX&$hxstqnljghiihgicOX%yDvB%aef#iwssrokjghghhih&bd0DBKLMV",
"KMHIyxdO@%bexwuqpmkkkjkj%aeO@%yCxC$bdxX%axsppmklkkjjO#%adxwvLMRT",
"KHIJCDfx#&cfx#wusrroonm%$dOx%aAyEx$dO0%&bexsupqoomoe0#&cOXCBMLOR",
"HIJKyC0X%bdO#@aefX&$cOX@bc0X%$DzECbd0X@acfX&bef#@$d0X%acOXBwQULP",
"IJKMDB0X%cf0X%bdx@%cd0#&aexX%bBDBvcfOX&aex#&beO#%afxX&adO@vxLQVR",
"JKWPBCCxzxzADzvvBCxwBCCvvxwvxAAxzxCzxEDEyDvEwEByyvACxvwwAAyDTMRS",
"KRLSyCvzyvAEyABADBEwvAABECwEEwExzEvyBvwADAwCxAEBwEyBDzBzwACDORST",
"KSNVPQRSWRMUFGHIVQLTNOPQUPKSVWFGTOWRLMNOSNVQTUVWRMUPJKLMQLTORSTU",
"KTPPQRSVRNWFGHIPLUQNOPQWSOKVWFGQMVRLMNOKTPLTUVWRNWSJKLMLUQMRSTUS",
"KUPQRSSPMWFGHIUROLNOPQWTQNVWFGLVSPLMNONKURTUVWPMWTJKLMROLVRSTUTQ",
"KPQRSNLWUFGHIKVTRNOPQUSQOVWFGRPNLLMNOOMKVTUVWLWUSJKLMVTRPRSTUSQO"
};