/* XPM */
static char *wall_west[] = {
"64 64 63 1",
"  c #1E1414",
". c #201616",
", c #221818",
": c #241A1A",
"; c #261C1C",
"- c #281E1E",
"= c #2A2020",
"+ c #2C2222",
"* c #2E2424",
"o c #96321E",
"O c #E4B404",
"0 c #342A2A",
"x c #B15F15",
"X c #382E2E",
"# c #3A3030",
"@ c #3C3232",
"% c #3E3434",
"& c #403636",
"$ c #423838",
"a c #443A3A",
"b c #463C3C",
"c c #483E3E",
"d c #4A4040",
"e c #4C4242",
"f c #4E4444",
"g c #504646",
"h c #524848",
"i c #544A4A",
"j c #564C4C",
"k c #584E4E",
"l c #5A5050",
"m c #5C5252",
"n c #5E5454",
"p c #99371D",
"q c #9C3C1C",
"r c #9F411B",
"s c #A2461A",
"t c #A54B19",
"u c #A85018",
"v c #AB5517",
"w c #AE5A16",
"y c #B46414",
"z c #B76913",
"A c #BA6E12",
"B c #BD7311",
"C c #C07810",
"D c #C37D0F",
"E c #C6820E",
"F c #C9870D",
"G c #CC8C0C",
"H c #CF910B",
"I c #D2960A",
"J c #D59B09",
"K c #D8A008",
"L c #DBA507",
"M c #DEAA06",
"N c #E1AF05",
"P c #E7B903",
"Q c #EABE02",
"R c #EDC301",
"S c #F0C800",
"T c #F3CD00",
"U c #F6D200",
"QhlmnfzglkmhfbinnmfsgjknhLcnnneqehnnlfdgknnfIainjkodhnklc&ijnmbE",
"Seknifz&ilnfbelknnfwjjnhcIdiknescinml%efnnnfLgknmhsbinkk$hjnjieA",
"SfgnmeE&innebbfkkhcrbljl$S&illhtddklhesijniaKhinghDbkmhk&ffinl%E",
"UcidddLhbgdaehegfdaA%jlcfQegkeaBvheegcAadefdTeegdcEffiihfbfikigC",
"UDf$cbNBfeaaidafbacAgfcehRBefcbIAfdgeoBe%behSteg%gKzb$dgtvdda%hE",
"UUUUTMUJGxtAxzsegwDKGAHMRRSKNHMLICEwCIGDFGFSSTRJMOQRJAzFGGwvyzGL",
"UIvotGNCfacarxac$ewFqbadGULv&fvDGf$$cBDpdbhISLvapFPHecajtwbf&bvF",
"U&cja%IhbficdgaigchG%cifeP$eii$Adaig&gB%gdfgUcfeg$JbfgbadfafihaC",
"Ualfk$Dcelmbcdeekh&IbhgeeK$gkeaheihfgasfijkfUfgghgBahjlcbdbhjjdy",
"UbllmhvdiinhfakimlcBeinlgHbnniibdikllcujnnjcUchjkiAcllml%bdnnj&y",
"UeknkcvdlkleahennjdIhnnidKgnnni$$jknkfbcnnlaUihnnhEbnnnl$emnkg&u",
"Uginnht&mnnm%ginnhhGemmnjFhhnjla&kknn&sflnliUbnnjky$lnne&dhkljcz",
"U$kmnbzehnnldffinhgMgniidD$nnnkfdhnijcychnidUfgnkjCbglmg&fhhnmdz",
"U$diibw&injfgfhhmdeJbllibDekkieb$dhlc%yfjmffUflgfgBcdihgcighggeK",
"QefhhdHgfcheqy$ihgvSeaha$Gc$iefkecebffG$fifvUadch&Ggecg$ev%ecadM",
"TDegesJDjdbvLIB$eBNUFpdexMsgdedqljbcdCLApuuNUHy$hsNxabchAIvhetFP",
"OKHAAGMEHyDHMSOOMLOTTIEBGJBqhfpuBxrvCLLJMJOPUNECBIJFvyByHOEIIKSU",
"P$cc%bJrafacHJa&daCPdae&fHdcf&afjaa&bzJa$bfzUebe&eBjbbfayCbag$CU",
"Pdfie&vfcidcrDdfjc%Q&jddcEdeifdgahffbeFagij%U&idedt$bgldexaggjbU",
"Nbimmeu@jnnd&qfgnf&Nfmmgfyglnkdg$dhme%vjlhfeQghnhdi&gmnfdpfnmheQ",
"KhjkkgocmnkjcfenlnbJgknleDblnjegaljnkdzglnngIdnnnkgehnmh%dhmlmaO",
"GgnnnebajnnjdcknnifGdjnnbEfhnneaafnng$zinnkcGiinnke&hnlkf&innlfL",
"OhgnjiqahnnkbgjnlngLdjlniDbnnnfabjjnl$ufknk$GhnnndgffnlfguinkidL",
"Jdlnndx%hniefthjjl%KgklghG$mnkcbfeinkdwdfhi&J$jlkhdadglg$vhjhkeM",
"ObighdwgcgiehxeifaaNeelc%J&befaBahehhbDfjki&B$ehk&qhajcaBDfhha%U",
"Qaab%$Bqebf%CCc&%awQ$fbbgNve&%aDDcecdyFfe$aaFhd&ecvbc&faERg&&fBU",
"MMIFzGHGHCECLMJKINNTRLFOJTNNINPUSOPHJLNHAyzxHwzqyDCEFGLMRTTSQNTU",
"OAb&ccCu$$&aBBa$fezSxb&hwQFfcfrKLwfgdFJfgegcAegagfzvhafrPRA&erEK",
"MbgfcaweghcfctfgehfIbgiidQbefbdCyeedfcG%ahcbAdbiicxbghhaAEdcegbK",
"Pahjlgd&djmgbcfllcaLfmlgcObjmgcu$biiicwgekkdCagmihxbcikfcshmjj&E",
"UamlnggehnkjfcjnnjaIcnlmcIbklnktffijk&xfhnlaChknlcwafmnebeelnkdw",
"Pelnjifdnnng$bljnihAhnnndKcnnnheakmnfbrlnllfKhknncbbhnnedfekni$v",
"UclnlkdalnlmdafjnkcHinlihDcnnng$dnkni$xknkldHhnnmcw$lnnecegnnjdw",
"Sglknjgefnlgf$gnkjaFgjnjiCfmlkdecgnmefvgnmjhJdlnldsaekiibcjnnldu",
"U$hlkge&fmhjgegkhj%FcgjjcCfcjjcxchjgeezggii%Jfhihbybbkheegglkf&v",
"P$fhe&vc&gecexbcfe$G$gcg$Ea&dg$xybcabuN@bhddT&hidaHcfii%fvagfbbw",
"PCidfdyvi$eeFGygbtCLCadgrLtgd$sIKx$$AGNAvbwIPDccauMHbhffzCddcgsD",
"NCvurvIFAuvDJHJACGJNFxtuAHDrqyyNLIzCNTSLLCHKUNDxEJPMCzBwEJuthvBJ",
"Qccgaexb&ecavI$cdeaMfedfbBabeaeyxegebAP$&ee$Uge&f$Hufeccwv%gaehA",
"QeeiifsdeihbeAekib$DekdfeAejdl$obfljb$LajkgcU$gihaBedjjghcdjke&y",
"Painhbp&ilhkbqjgnf&zininesfenmhiejkil%DcnhkfQamngaucdihgghkhigev",
"Icinlcv%gmkhdujnnnaEhnnncufmnnldaekmg%AjjnjhOdmnnjycknnf&fdnng$t",
"Kfnnnkvglnknftklmiewiklnilelnnhe&nlmgbAimmigOckmnexdjnmk&djnlkcv",
"Hhnnjiv%nnnjdvkmnifAelnncicnnngb%enkh&zgmnmaPehlmcwdnnnm$hlknibv",
"HginjiD$jjkktxjmnl$wgnjfdsdgjifhdhgmdcFgkie$MbgjkcCejkgcbbcnkgax",
"Fdjhd&GbegdhHLekgiaCehibcy$cjdavabicaeDcfce%Ladkc&BddehdAxgkkgeI",
"Cd%f%dKI&&&sSRf%%%gHaa$%iwjc%bfGEd&bcDJbe&%dGbff@fJAe%&$IHdd$ayH",
"GBEFHURTUUUUUUUMNHIHEywzyIHFHNLTNSLOPJMKFCCDIJIHLOOSRPUQUUPPMMKM",
"Jghb&zTJyb%ETRwbf$yBd$$djJqdgcuHFb&g$CEged$hGgbagrOKwfeAKLsd$gvI",
"Eaeib%NBfceazKaihdczaabh$Fdaeedzt$cfcfAffe$fE$eddaKx$hbgzIfhhefC",
"FedjkdIakkgjtwfnmefBblkhcCdgjhhAbjjik%failffEafgjeDcfgncwwblghdC",
"FcjkmbBfhkmgbeinlngCcmnjgKggnmjs$iknl%fdnnnfCgnnnbDbjjkeavjlligD",
"Gbjlmez$kkni$$mlnifyennmeH$hnneddlnnn&gjmnndEcnkncy$hnng&djmkkcx",
"IahkjhCemnlm$afnnmfydnlncM$nkmfa&hnnj%bjnnlhDajnigDajnnif$gnkjcv",
"FchnnjAbminl$bfhjnaDcjnlgOfjnngx&hmnldbbjnneHdjmnbCelnmgafglnmex",
"Nddnhby%eliiagcmjebHaliigRedglaw$hfkgfhgigjcCeikhdMfdijderdegk&A",
"Ncghb&Dhfdaeiw%dgdeKbbfhdUCdhcdEAead&hd%fcgfJc&cgcMBfe$fxvf$aeaJ",
"OCchiwNGrfcgDBhhbiENytyDIUNIyzEPLwcabvvjgfazGEtawDTIvqfABFwbbgBF",
"ODurxAOKzsouEBvfixBJJHAGUUUQJDISIztjjtDukevzLDFzAJUPExsxGGrjisBN",
"Mfdbe%za%eb&exdgabiOacegxUB$ad%EBe&eedt%bdbbR$$cadHtee$$doec$cfJ",
"RcdkdayaillefhckjbdIcfed$Sacfe$tffihhdf&igk&S%dmf$Ebdkehibaefe$I",
"LdlilfubehnefcjjnefDelnhiMbfileebdhndcgennmhSbknhjyellkdbaennmcF",
"KfhnncidmlniehlnmlbDhkmmfS$gnkdgfjnjldfekknePeinkgtfgnmfagjnkg&F",
"Oaikmkbcjnng$chjnigCblnkgPennnfecgnnhfaflklcRcjnnfwfhlni&$inlnfB"
};